Coordinates
version=1
nRows=16
nColumns=36
inDegrees=yes

Units are S.I. units (second, meters, Newtons, ...)
If the header above contains a line with 'inDegrees', this indicates whether rotational values are in degrees (yes) or radians (no).

endheader
time	pelvis_tilt	pelvis_list	pelvis_rotation	pelvis_tx	pelvis_ty	pelvis_tz	hip_flexion_r	hip_adduction_r	hip_rotation_r	knee_angle_r	knee_angle_r_beta	ankle_angle_r	subtalar_angle_r	mtp_angle_r	hip_flexion_l	hip_adduction_l	hip_rotation_l	knee_angle_l	knee_angle_l_beta	ankle_angle_l	subtalar_angle_l	mtp_angle_l	lumbar_extension	lumbar_bending	lumbar_rotation	arm_flex_r	arm_add_r	arm_rot_r	elbow_flex_r	pro_sup_r	arm_flex_l	arm_add_l	arm_rot_l	elbow_flex_l	pro_sup_l
      0.98333330	     -8.10900152	      1.42616810	      0.47962061	     -0.28422787	      1.44476145	     -0.07029345	      8.43364424	     -5.42790507	      0.01271618	     36.12868072	      0.63056443	    -17.80164873	     -2.88251036	     -7.49503559	     21.13955586	     -3.10549022	     -3.77327718	     45.33837931	      0.79130400	    -11.61511215	    -11.92755604	     -7.49503559	     -8.60351512	      0.38660760	     -0.30927254	    108.08611612	    -39.83102820	     43.26319389	    114.34206879	    101.72783466	     85.86569786	    -48.39379326	     28.65888868	    121.94050516	     98.22361544
      1.00000000	     -7.97794009	      1.24609646	      0.02916116	     -0.26632648	      1.44548258	     -0.06698576	     10.18845858	     -5.15650463	     -0.01254393	     36.19555765	      0.63173166	    -16.10758559	     -3.93110379	     -7.49579432	     21.04546461	     -3.98210005	     -5.03988758	     42.33870119	      0.73894974	    -13.06833351	    -12.89823503	     -7.49579432	     -9.23600412	      0.82800913	     -1.31967490	    106.54655781	    -39.32278045	     42.17920632	    113.84874037	    101.32916787	     80.91564117	    -52.81140949	     24.42794597	    123.45411186	     97.19789306
      1.01666670	     -7.18680666	      0.80414451	     -0.28383676	     -0.23963928	      1.44172988	     -0.05421512	     11.02453123	     -4.54540005	     -0.19232428	     36.77986961	      0.64192982	    -14.20350460	     -4.83925514	     -7.49665243	     21.14085349	     -5.49496566	     -5.33942410	     41.05254315	      0.71650204	    -14.80540849	    -12.35179719	     -7.49665243	     -9.98082012	      0.87046553	     -2.90313674	    104.54534623	    -38.64166655	     40.71667054	    114.26980321	    101.06542508	     78.13700510	    -57.48175200	     22.54229130	    123.31978865	     95.66152528
      1.03333330	     -7.05795664	      0.24959501	      0.33558246	     -0.21702073	      1.43322022	     -0.05692153	     11.77119721	     -3.96747697	     -1.20004808	     35.46862218	      0.61904424	    -14.52933776	     -5.76154592	     -7.49673926	     20.97193932	     -6.63669614	     -5.80577837	     38.33859521	      0.66913472	    -15.93387850	    -11.41912311	     -7.49673926	     -9.63725969	      1.20496698	     -3.55017541	    103.25370958	    -40.86745243	     40.85152646	    114.02955868	    100.56722541	     75.94618249	    -59.62302937	     23.60847309	    121.91412777	     95.29008521
      1.05000000	     -6.84566831	      0.11506361	      0.95515338	     -0.19779122	      1.42506424	     -0.06770500	     11.62491306	     -4.30278478	     -1.36629476	     33.06763947	      0.57713918	    -13.13988471	     -7.23102071	     -7.49687498	     21.47568015	     -6.44071017	     -5.94777341	     36.62748422	      0.63927020	    -16.59946473	    -11.02589730	     -7.49687498	     -8.83747679	      1.47171941	     -3.93860034	    101.39250025	    -43.41265947	     41.23679530	    113.68642129	     99.87796700	     72.22723551	    -60.57169561	     24.32536724	    120.31492420	     94.69132961
      1.06666670	     -6.71668865	      0.09082198	      0.91379446	     -0.18600587	      1.42010640	     -0.06834361	     12.58725344	     -4.36731706	     -0.91380956	     31.21654812	      0.54483155	    -11.87159085	     -8.59000940	     -7.49706124	     22.04399419	     -5.98993575	     -5.77073477	     34.83773556	      0.60803319	    -16.87414023	    -10.85196036	     -7.49706124	     -8.30692259	      1.31821157	     -3.03657215	     99.71912499	    -46.88738557	     42.63919087	    111.05892587	     98.78034043	     67.73448603	    -59.67320239	     23.64852355	    117.50522324	     93.53556903
      1.08333330	     -6.71566056	     -0.09197445	      0.75225341	     -0.16526825	      1.41195744	     -0.05980058	     13.74847594	     -4.16823692	     -0.41397379	     29.83382026	      0.52069839	    -12.75752061	     -9.31829167	     -7.49838340	     22.21462824	     -5.93722216	     -5.60238676	     32.68883051	      0.57052772	    -16.83318864	    -10.00172187	     -7.49838340	     -8.48512406	      2.04445905	     -5.88240410	     96.50145106	    -44.68477355	     42.63751428	    110.31232716	     96.14451564	     48.86804163	    -65.24903261	      7.31138139	    121.35703265	     91.24367581
      1.10000000	     -6.41385078	     -0.23391030	      0.94464091	     -0.14791004	      1.39635357	     -0.05587614	     13.94358085	     -3.72900699	      0.25069520	     27.26768797	      0.47591093	    -11.87079629	     -9.10133684	     -7.49929500	     22.56259260	     -6.24127056	     -4.77470914	     30.57536552	      0.53364080	    -17.33878450	     -7.72842343	     -7.49929500	     -8.71498642	      1.74404476	     -7.51836172	     91.72711483	    -43.65656759	     40.46241668	    108.98560032	     96.57335215	     35.70865573	    -68.82577391	     -2.97594031	    121.95531964	     88.33175114
      1.11666670	     -6.37316023	     -0.48645415	      1.28336393	     -0.12876817	      1.38110773	     -0.06567023	     14.46224955	     -3.57932375	      0.23965124	     25.02308503	      0.43673522	    -12.69213319	     -8.78920993	     -7.49984066	     22.57324128	     -6.07782017	     -5.63098279	     27.53127400	      0.48051138	    -19.29763137	     -6.20359271	     -7.49984066	     -9.05568729	      2.71230533	    -11.16493299	     91.05618097	    -39.51935435	     44.22549584	    104.26116393	     95.04176332	      5.07765207	    -69.11001592	    -30.99761007	    124.49230340	     87.42250505
      1.13333330	     -6.32066759	     -0.37194340	      2.17216116	     -0.11158590	      1.37458668	     -0.07190023	     14.46454378	     -4.30402629	      0.70821194	     21.07679897	      0.36785954	    -14.54964477	     -7.94103108	     -7.49984483	     22.42191104	     -5.22579998	     -5.84702105	     24.09929305	      0.42061201	    -21.79304816	     -4.80253463	     -7.49984483	     -8.47048342	      1.97617300	    -11.02470890	     83.37188341	    -42.44045731	     41.67254911	    104.37594893	     94.50568288	      0.12415569	    -66.77722018	    -31.40352308	    122.20039640	     87.29903213
      1.15000000	     -5.86375584	     -0.48809772	      2.32748572	     -0.08700055	      1.34465775	     -0.05868085	     14.74848358	     -4.19872771	      1.24272165	     18.06345765	      0.31526681	    -17.29052507	     -7.18673351	     -7.49993680	     21.31905248	     -5.19124087	     -5.66036354	     20.45646967	      0.35703275	    -25.06597925	     -3.40500970	     -7.49993680	     -9.59966424	      1.98013953	    -16.42593639	     83.82432929	    -37.20327071	     45.61154593	     99.74626860	     90.96470853	    -32.00760771	    -62.40023428	    -61.62750518	    125.36466200	     82.23293617
      1.16666670	     -5.89799596	     -0.71090758	      2.37640378	     -0.07037685	      1.31783147	     -0.05513741	     15.03170102	     -3.90157241	      1.48453272	     15.08311633	      0.26325004	    -18.83200853	     -6.35865098	     -7.49993607	     21.74694832	     -5.74891023	     -4.71580284	     18.43939450	      0.32182815	    -26.27957994	     -1.63054497	     -7.49993607	     -9.14473797	      1.71086123	    -17.08130259	     80.89506682	    -38.29535000	     47.38441486	     99.90113394	     91.31798297	    -35.19260046	    -61.50955582	    -59.78692129	    125.45045814	     82.57935484
      1.18333330	     -5.76305845	     -0.61693230	      2.90145521	     -0.05112284	      1.29063179	     -0.06436031	     15.54354281	     -4.55511428	      1.53807026	     12.14149177	      0.21190901	    -19.89591367	     -5.09940020	     -7.49994167	     21.95089567	     -5.54093387	     -5.23449512	     16.12158468	      0.28137473	    -28.30186057	      0.11606829	     -7.49994167	     -8.86672116	      1.07824918	    -19.17990616	     76.78505293	    -42.35338685	     48.90663569	    101.81132992	     88.75744585	    -40.48056327	    -59.91885570	    -60.30912112	    126.09657608	     81.86091952
      1.20000000	     -5.55380897	     -0.69083348	      2.74018029	     -0.02509914	      1.26134878	     -0.06970829	     15.98086262	     -4.81768831	      1.52830593	     10.81602204	      0.18877520	    -22.74466029	     -3.30952883	     -7.49994234	     20.97796781	     -5.65079070	     -5.26995989	     13.17501815	      0.22994745	    -29.97021880	      2.22051658	     -7.49994234	     -8.49371176	      1.61869959	    -19.15606332	     75.36067741	    -45.70851253	     50.65683070	    102.34681602	     88.58605851	    -43.02484341	    -57.82129498	    -60.22289146	    125.61302018	     81.85816018
      1.21666670	     -5.41371960	     -0.73075190	      2.45417710	     -0.00116970	      1.22699921	     -0.06429673	     16.20464084	     -5.02162216	      1.29009000	      9.22963995	      0.16108761	    -23.52959150	     -3.04214695	     -7.49994605	     20.56660704	     -5.78053356	     -5.49918793	     11.18488626	      0.19521309	    -29.90782832	      3.81159286	     -7.49994605	     -9.12193712	      1.30588609	    -19.78605893	     72.77185785	    -49.19332858	     52.37532646	    104.21630013	     87.07915297	    -47.29212926	    -55.54029069	    -62.01444854	    127.72785653	     81.43844490
      1.23333330	     -4.97192305	     -0.96518663	      2.92523989	      0.01482305	      1.18622447	     -0.06070634	     16.74345117	     -4.84717282	      1.54301450	      8.13656291	      0.14200981	    -23.23056767	     -1.79389391	     -7.49995148	     21.38698638	     -6.45461865	     -5.23830024	     11.38830929	      0.19876349	    -29.92976959	      4.56149814	     -7.49995148	    -10.15383984	      0.23339348	    -21.15475265	     68.94290353	    -51.37664715	     53.56201939	    110.08360286	     85.20998818	    -54.38183836	    -52.76603833	    -66.67765712	    129.62974674	     80.56260533
